<svg xmlns="http://www.w3.org/2000/svg" width="4000" height="4000" viewBox="0 0 4000 4000">
  <metadata><?xpacket begin="﻿" id="W5M0MpCehiHzreSzNTczkc9d"?>
<x:xmpmeta xmlns:x="adobe:ns:meta/" x:xmptk="Adobe XMP Core 5.6-c142 79.160924, 2017/07/13-01:06:39        ">
   <rdf:RDF xmlns:rdf="http://www.w3.org/1999/02/22-rdf-syntax-ns#">
      <rdf:Description rdf:about=""/>
   </rdf:RDF>
</x:xmpmeta>
                                                                                                    
                                                                                                    
                                                                                                    
                                                                                                    
                                                                                                    
                                                                                                    
                                                                                                    
                                                                                                    
                                                                                                    
                                                                                                    
                                                                                                    
                                                                                                    
                                                                                                    
                                                                                                    
                                                                                                    
                                                                                                    
                                                                                                    
                                                                                                    
                                                                                                    
                                                                                                    
                           
<?xpacket end="w"?></metadata>
<defs>
    <style>
      .cls-1 {
        fill-rule: evenodd;
      }
    </style>
  </defs>
  <path id="Contactos" class="cls-1" d="M1999.5,3628.01c-899.4,0-1628.508-729.06-1628.508-1628.41,0-584.5,307.983-1097.067,770.518-1384.319a82.523,82.523,0,0,1,79.95,143.111,3.226,3.226,0,0,0-1.36,2.365C809.776,1019.05,537.106,1476,537.106,1996.63c0,805.98,653.414,1459.35,1459.434,1459.35s1459.43-653.37,1459.43-1459.35c0-522.29-274.4-980.49-686.9-1238.342a84.512,84.512,0,0,1,95.96-138.3c458.34,288.124,762.98,798.288,762.98,1379.608C3628.01,2898.95,2898.9,3628.01,1999.5,3628.01Zm390.28-2025.39a160.525,160.525,0,0,1,289.08-96.13c0.19,0.25.38,0.48,0.56,0.69a840.265,840.265,0,0,1,71.92,866.23,7.967,7.967,0,0,0-.9,1.42A160.055,160.055,0,1,1,2466,2227.99a4.314,4.314,0,0,0,.48-1.43,519.535,519.535,0,0,0-53.66-541.04A159.783,159.783,0,0,1,2389.78,1602.62Zm846.68,399.95c0,413.4-203.33,779.31-515.43,1003.22a124.018,124.018,0,0,1-133.72-207.89c1.3-1,.84-1.16-1.21-0.61,243.28-178.69,401.19-466.78,401.19-791.76,0-396.65-235.24-738.35-573.83-893.24a127.044,127.044,0,0,1,109.9-228.641C2944.55,1080.04,3236.46,1507.21,3236.46,2002.57ZM2002.23,2987.29a127.52,127.52,0,1,1-127.51,127.52A127.523,127.523,0,0,1,2002.23,2987.29Zm-1.5-148.01a160.02,160.02,0,1,1,160.02-160.02A160.028,160.028,0,0,1,2000.73,2839.28Zm-450.05-539.07a162.013,162.013,0,0,1-288.07,101.78,839.983,839.983,0,0,1,63.07-903.1,160.524,160.524,0,0,1,257.4,190.74,519.536,519.536,0,0,0-44.67,548.64A161.547,161.547,0,0,1,1550.68,2300.21Zm34.87-1182.47a5.131,5.131,0,0,0-.68.39c-331.84,157.53-561.29,495.67-561.29,887.4,0,322.77,155.78,609.16,396.24,788.11a18.329,18.329,0,0,0,1.76,1.57,125.522,125.522,0,1,1-153.38,198.74,13.029,13.029,0,0,0-2.91-1.76c-301.548-224.97-496.811-584.49-496.811-989.62,0-492.86,288.981-918.21,706.751-1115.915A128.034,128.034,0,1,1,1585.55,1117.74Z"/>
</svg>
