<svg xmlns="http://www.w3.org/2000/svg" width="4000" height="4000" viewBox="0 0 4000 4000">
  <defs>
    <style>
      .cls-1 {
        fill-rule: evenodd;
      }
    </style>
  </defs>
  <path id="Home" class="cls-1" d="M3491.95,2495.91a83.572,83.572,0,0,1-80.56-105.58,32.072,32.072,0,0,0,.9-4.58,1461.5,1461.5,0,0,0,50.6-382.37c0-805.98-653.41-1459.357-1459.43-1459.357S544.032,1197.4,544.032,2003.38a1461.216,1461.216,0,0,0,49.428,377.9,28.988,28.988,0,0,0,.664,3.14,86.026,86.026,0,0,1-161.457,57.84,1629.646,1629.646,0,0,1-60.682-441.85c0-899.35,729.1-1628.425,1628.515-1628.425S3629.01,1101.06,3629.01,2000.41a1629.2,1629.2,0,0,1-63.39,451.35A83.507,83.507,0,0,1,3491.95,2495.91ZM2441.89,898.836a125.75,125.75,0,0,1,115.32-.288,60.5,60.5,0,0,0,10.5,4.332c394.5,205.9,663.81,618.78,663.81,1094.57,0,582.82-404.1,1071.24-947.41,1200.45-0.87.16-1.77,0.34-2.72,0.53a127.545,127.545,0,0,1-56.43-248.71c0.4-.1.35-0.31-0.11-0.61,431.16-103.62,751.57-491.7,751.57-954.63,0-386.36-223.19-720.58-547.67-880.82A125.539,125.539,0,0,1,2441.89,898.836Zm-1001.97-2.427a124.529,124.529,0,0,1,120.89,217.041c-324.71,160.15-548.1,494.5-548.1,881.03,0,466.48,325.34,856.97,761.51,956.97a127.043,127.043,0,0,1-67.41,244.88,67.6,67.6,0,0,0-8.62-1.54c-536.87-133.77-934.65-619.1-934.65-1197.34C763.54,1516.62,1038.58,1100.05,1439.92,896.409Zm435.33-8.216a124.515,124.515,0,1,1,124.52,124.517A124.519,124.519,0,0,1,1875.25,888.193Zm915.52,828.437A160.556,160.556,0,0,1,2490,1827.21c-71.32-201.52-263.55-345.88-489.5-345.88-222.94,0-413.04,140.53-486.58,337.83a4.771,4.771,0,0,0-.24.44,160.586,160.586,0,0,1-149.99,103.23c-88.66,0-162.52-62.37-162.52-151.02,0-5.23-.37-15.36-0.97-25.54,107.69-339.36,425.27-585.28,800.3-585.28C2364.52,1160.99,2674.41,1392.68,2790.77,1716.63Z"/>
</svg>
