<svg xmlns="http://www.w3.org/2000/svg" width="4000" height="4000" viewBox="0 0 4000 4000">
  <metadata><?xpacket begin="﻿" id="W5M0MpCehiHzreSzNTczkc9d"?>
<x:xmpmeta xmlns:x="adobe:ns:meta/" x:xmptk="Adobe XMP Core 5.6-c142 79.160924, 2017/07/13-01:06:39        ">
   <rdf:RDF xmlns:rdf="http://www.w3.org/1999/02/22-rdf-syntax-ns#">
      <rdf:Description rdf:about=""/>
   </rdf:RDF>
</x:xmpmeta>
                                                                                                    
                                                                                                    
                                                                                                    
                                                                                                    
                                                                                                    
                                                                                                    
                                                                                                    
                                                                                                    
                                                                                                    
                                                                                                    
                                                                                                    
                                                                                                    
                                                                                                    
                                                                                                    
                                                                                                    
                                                                                                    
                                                                                                    
                                                                                                    
                                                                                                    
                                                                                                    
                           
<?xpacket end="w"?></metadata>
<defs>
    <style>
      .cls-1 {
        fill-rule: evenodd;
      }
    </style>
  </defs>
  <path id="Intervenientes" class="cls-1" d="M2000.5,3628.01c-899.4,0-1628.508-728.88-1628.508-1628,0-717.04,463.7-1325.791,1107.658-1542.959a83.006,83.006,0,0,1,50.94,157.291C953.572,809.015,538.106,1354.52,538.106,1997.04c0,805.77,653.414,1458.98,1459.434,1458.98s1459.43-653.21,1459.43-1458.98c0-638.11-409.79-1180.512-980.63-1378.621a3.455,3.455,0,0,0-.54-0.269,84.011,84.011,0,0,1,43.75-161.7c644.9,216.638,1109.46,825.857,1109.46,1543.557C3629.01,2899.13,2899.9,3628.01,2000.5,3628.01ZM1271.22,1584.32a160.026,160.026,0,1,1,276.92,160.46,4.212,4.212,0,0,0-.53,1.44,516.47,516.47,0,0,0-66.21,253.79c0,168.74,80.56,318.66,205.33,413.44h-0.06a159.989,159.989,0,1,1-204.28,246.28c-0.06.16-.11,0.32-0.17,0.49-195.57-153.65-321.19-392.27-321.19-660.21a835.134,835.134,0,0,1,110.21-415.93C1271.23,1584.16,1271.23,1584.24,1271.22,1584.32ZM1845,2675a156,156,0,1,1,156,156A156,156,0,0,1,1845,2675Zm585-1011a160.02,160.02,0,0,1,298.78-79.68,19.537,19.537,0,0,0,3.78,4.68,835.184,835.184,0,0,1,107.41,411.01c0,264.05-121.99,499.61-312.69,653.45a82.816,82.816,0,0,0-8.15,6.1,160.028,160.028,0,1,1-204.32-246.35v-0.17c124.46-94.8,204.8-244.54,204.8-413.03a516.376,516.376,0,0,0-74.33-267.72A159.374,159.374,0,0,1,2430,1664ZM2003.47,3236.58c-533.41,0-987.76-338.35-1160.052-812.07-0.152-.53-0.3-1.06-0.481-1.59a126.537,126.537,0,0,1,237.673-86.83c0.25-.14.51-0.29,0.76-0.43,135.5,379.9,498.51,651.83,925.07,651.83,430.21,0,795.78-276.62,928.5-661.64a124.035,124.035,0,0,1,229.26,93.75c0.38-.04.76-0.11,1.15-0.17C2994.47,2895.81,2538.79,3236.58,2003.47,3236.58Zm0-2467.218c260.11,0,501.42,80.464,700.4,217.84l0.06,0.053a125.965,125.965,0,0,1-149.7,202.585c0.41,0.75.81,1.47,1.22,2.21-156.72-105.85-345.64-167.66-549.01-167.66-203.73,0-392.96,62.03-549.83,168.22a4.1,4.1,0,0,0-1.27.6,128.019,128.019,0,0,1-152.15-205.878l-0.23-.058C1501.96,849.854,1743.31,769.362,2003.47,769.362Z"/>
</svg>
