<svg xmlns="http://www.w3.org/2000/svg" width="4000" height="4000" viewBox="0 0 4000 4000">
  <metadata><?xpacket begin="﻿" id="W5M0MpCehiHzreSzNTczkc9d"?>
<x:xmpmeta xmlns:x="adobe:ns:meta/" x:xmptk="Adobe XMP Core 5.6-c142 79.160924, 2017/07/13-01:06:39        ">
   <rdf:RDF xmlns:rdf="http://www.w3.org/1999/02/22-rdf-syntax-ns#">
      <rdf:Description rdf:about=""/>
   </rdf:RDF>
</x:xmpmeta>
                                                                                                    
                                                                                                    
                                                                                                    
                                                                                                    
                                                                                                    
                                                                                                    
                                                                                                    
                                                                                                    
                                                                                                    
                                                                                                    
                                                                                                    
                                                                                                    
                                                                                                    
                                                                                                    
                                                                                                    
                                                                                                    
                                                                                                    
                                                                                                    
                                                                                                    
                                                                                                    
                           
<?xpacket end="w"?></metadata>
<defs>
    <style>
      .cls-1 {
        fill-rule: evenodd;
      }
    </style>
  </defs>
  <path id="Local" class="cls-1" d="M3530.06,2557.05c-0.12-.1-0.22-0.05-0.3.17a86.527,86.527,0,0,1-164.8-52.24,1455.893,1455.893,0,0,0,91.09-508.52c0-805.87-653.33-1459.161-1459.25-1459.161S537.554,1190.59,537.554,1996.46a1456.206,1456.206,0,0,0,88.614,501.89,12.7,12.7,0,0,0,.726,2.74,84.018,84.018,0,0,1-152.308,69.75c-66.651-177.8-103.126-370.34-103.126-571.41,0-899.24,729.02-1628.215,1628.31-1628.215S3628.08,1100.19,3628.08,1999.43C3628.08,2195.31,3593.47,2383.1,3530.06,2557.05ZM2002.73,768.63c654.57,0,1190.08,509.68,1231.29,1153.8-0.01.49-.02,1.02-0.02,1.57a125.008,125.008,0,0,1-248.5,19.4q-0.645-10.32-1.51-20.59a32.468,32.468,0,0,0-.52-6.17c-44.84-500.59-465.48-892.95-977.77-892.95-511.35,0-931.37,390.92-977.51,890.19a71.333,71.333,0,0,0-1.17,13.73q-0.78,9.9-1.35,19.86a128,128,0,0,1-254.658-17.49C808.5,1282.3,1345.62,768.63,2002.73,768.63Zm-521.42,570.69a839.535,839.535,0,0,1,1033.21-2.88,160.494,160.494,0,0,1-191.01,257.29,519.118,519.118,0,0,0-651.45,3.21A161.008,161.008,0,0,1,1481.31,1339.32ZM2001,2519a160,160,0,1,1-160,160A159.994,159.994,0,0,1,2001,2519Zm1.5,468A127.5,127.5,0,1,1,1875,3114.5,127.5,127.5,0,0,1,2002.5,2987Zm0,474a83.5,83.5,0,1,1-83.5,83.5A83.495,83.495,0,0,1,2002.5,3461Z"/>
</svg>
