<svg xmlns="http://www.w3.org/2000/svg" width="4000" height="4000" viewBox="0 0 4000 4000">
  <metadata><?xpacket begin="﻿" id="W5M0MpCehiHzreSzNTczkc9d"?>
<x:xmpmeta xmlns:x="adobe:ns:meta/" x:xmptk="Adobe XMP Core 5.6-c142 79.160924, 2017/07/13-01:06:39        ">
   <rdf:RDF xmlns:rdf="http://www.w3.org/1999/02/22-rdf-syntax-ns#">
      <rdf:Description rdf:about=""/>
   </rdf:RDF>
</x:xmpmeta>
                                                                                                    
                                                                                                    
                                                                                                    
                                                                                                    
                                                                                                    
                                                                                                    
                                                                                                    
                                                                                                    
                                                                                                    
                                                                                                    
                                                                                                    
                                                                                                    
                                                                                                    
                                                                                                    
                                                                                                    
                                                                                                    
                                                                                                    
                                                                                                    
                                                                                                    
                                                                                                    
                           
<?xpacket end="w"?></metadata>
<defs>
    <style>
      .cls-1 {
        fill-rule: evenodd;
      }
    </style>
  </defs>
  <path id="Principal" class="cls-1" d="M2000.5,3628.01c-899.4,0-1628.508-728.88-1628.508-1628S1101.1,372,2000.5,372,3629.01,1100.88,3629.01,2000.01,2899.9,3628.01,2000.5,3628.01Zm-2.96-3089.95c-806.02,0-1459.434,653.21-1459.434,1458.98S1191.52,3456.02,1997.54,3456.02s1459.43-653.21,1459.43-1458.98S2803.56,538.06,1997.54,538.06Zm5.93,2698.52c-681.51,0-1233.991-552.31-1233.991-1233.61S1321.96,769.362,2003.47,769.362,3237.46,1321.67,3237.46,2002.97,2684.98,3236.58,2003.47,3236.58Zm2.97-2212.19c-542.27,0-981.86,439.45-981.86,981.55s439.59,981.55,981.86,981.55,981.85-439.46,981.85-981.55S2548.7,1024.39,2006.44,1024.39Zm-5.94,1814.83c-463.62,0-839.47-375.73-839.47-839.21,0-259.58,117.9-491.62,303.07-645.56-1.54,1.64-3.09,3.27-4.64,4.92,24.78-24.77,67.16-43.37,109.54-43.37a160,160,0,0,1,107.14,278.83c-118.72,95.1-194.74,241.26-194.74,405.18,0,286.6,232.41,518.94,519.1,518.94s519.11-232.34,519.11-518.94c0-163.94-76.04-310.12-194.79-405.22a160,160,0,1,1,216.72-235.42c1.8,1.7,1.66,1.14-.3-1.29,182.68,153.94,298.73,384.38,298.73,641.93C2839.97,2463.49,2464.13,2839.22,2000.5,2839.22Z"/>
</svg>
