<svg xmlns="http://www.w3.org/2000/svg" width="4000" height="4000" viewBox="0 0 4000 4000">
  <metadata><?xpacket begin="﻿" id="W5M0MpCehiHzreSzNTczkc9d"?>
<x:xmpmeta xmlns:x="adobe:ns:meta/" x:xmptk="Adobe XMP Core 5.6-c142 79.160924, 2017/07/13-01:06:39        ">
   <rdf:RDF xmlns:rdf="http://www.w3.org/1999/02/22-rdf-syntax-ns#">
      <rdf:Description rdf:about=""/>
   </rdf:RDF>
</x:xmpmeta>
                                                                                                    
                                                                                                    
                                                                                                    
                                                                                                    
                                                                                                    
                                                                                                    
                                                                                                    
                                                                                                    
                                                                                                    
                                                                                                    
                                                                                                    
                                                                                                    
                                                                                                    
                                                                                                    
                                                                                                    
                                                                                                    
                                                                                                    
                                                                                                    
                                                                                                    
                                                                                                    
                           
<?xpacket end="w"?></metadata>
<defs>
    <style>
      .cls-1 {
        fill-rule: evenodd;
      }
    </style>
  </defs>
  <path id="Sobre2" class="cls-1" d="M1332.65,1707.14a160.154,160.154,0,0,1,157.08,190.7,7.6,7.6,0,0,0,.04,3.08,521.7,521.7,0,0,0-9.37,98.68c0,286.68,232.41,519.08,519.1,519.08s519.11-232.4,519.11-519.08a521.524,521.524,0,0,0-10.62-104.96,161.038,161.038,0,0,1,310.16-81.58,841.782,841.782,0,0,1,20.82,186.54c0,463.6-375.84,839.42-839.47,839.42s-839.47-375.82-839.47-839.42a842.805,842.805,0,0,1,18.18-174.47A160.077,160.077,0,0,1,1332.65,1707.14ZM2981.39,2753.91a124.015,124.015,0,0,1-190.29-158.69c-0.33.17-.66,0.35-0.98,0.53,123.78-164.29,197.17-368.68,197.17-590.21,0-542.23-439.59-981.8-981.85-981.8s-981.86,439.57-981.86,981.8c0,223.44,74.66,429.43,200.37,594.43a126.524,126.524,0,0,1-208.94,142.5,8.822,8.822,0,0,0-1.05-1.19c-154.167-205.94-245.481-461.66-245.481-738.71,0-681.47,552.481-1233.914,1233.991-1233.914S3236.46,1321.1,3236.46,2002.57C3236.46,2285.31,3141.35,2545.83,2981.39,2753.91Zm-981.89,874.1c-899.4,0-1628.508-729.06-1628.508-1628.41,0-623.8,350.785-1165.654,865.858-1439.144a83.009,83.009,0,0,1,71.3,148.634c0.18,0.057.36,0.11,0.53,0.167C849.484,955.094,537.106,1439.38,537.106,1996.64c0,805.97,653.414,1459.34,1459.434,1459.34s1459.43-653.37,1459.43-1459.34c0-555.59-310.51-1038.651-767.45-1285.174-0.25-.194-0.5-0.376-0.74-0.532a84.013,84.013,0,0,1,82.82-145.959c510.46,274.909,857.41,814.245,857.41,1434.625C3628.01,2898.95,2898.9,3628.01,1999.5,3628.01Zm0.23-643.71a128.015,128.015,0,1,1-128.01,128.01A128.01,128.01,0,0,1,1999.73,2984.3Z"/>
</svg>
