<svg xmlns="http://www.w3.org/2000/svg" width="4000" height="4000" viewBox="0 0 4000 4000">
  <metadata><?xpacket begin="﻿" id="W5M0MpCehiHzreSzNTczkc9d"?>
<x:xmpmeta xmlns:x="adobe:ns:meta/" x:xmptk="Adobe XMP Core 5.6-c142 79.160924, 2017/07/13-01:06:39        ">
   <rdf:RDF xmlns:rdf="http://www.w3.org/1999/02/22-rdf-syntax-ns#">
      <rdf:Description rdf:about=""/>
   </rdf:RDF>
</x:xmpmeta>
                                                                                                    
                                                                                                    
                                                                                                    
                                                                                                    
                                                                                                    
                                                                                                    
                                                                                                    
                                                                                                    
                                                                                                    
                                                                                                    
                                                                                                    
                                                                                                    
                                                                                                    
                                                                                                    
                                                                                                    
                                                                                                    
                                                                                                    
                                                                                                    
                                                                                                    
                                                                                                    
                           
<?xpacket end="w"?></metadata>
<defs>
    <style>
      .cls-1 {
        fill-rule: evenodd;
      }
    </style>
  </defs>
  <path id="Sobre" class="cls-1" d="M2757.78,1639.81a160.032,160.032,0,0,1-285.99,143.48c-81.99-178.73-262.5-302.87-472.02-302.87-207.57,0-386.68,121.84-469.71,297.9-0.07-.07-0.14-0.12-0.21-0.19a160.035,160.035,0,0,1-288.63-138.32c0.41-.88.77-1.73,1.16-2.59,135.22-282.21,423.54-477.11,757.39-477.11,334.93,0,624.03,196.17,758.69,479.87C2758.24,1639.92,2758.01,1639.86,2757.78,1639.81ZM2003,2522a156,156,0,1,1-156,156A156,156,0,0,1,2003,2522ZM771,2073.5a127.5,127.5,0,0,1,255,0,75.118,75.118,0,0,0,1.56,16.25c42.81,502.66,464.38,897.28,978.14,897.28,520.8,0,946.88-405.51,979.69-917.99,0.21,0.48.41,0.97,0.61,1.46a124.5,124.5,0,0,1,248.93-3.99c-33.36,651.59-572.27,1169.65-1232.2,1169.65-657.6,0-1195.016-514.43-1231.8-1162.78C770.954,2073.42,770.976,2073.46,771,2073.5ZM3120.5,3180.59a87.494,87.494,0,0,1-119.76-125.2c280.42-265.91,455.31-641.99,455.31-1058.93,0-805.87-653.33-1459.161-1459.25-1459.161S537.554,1190.59,537.554,1996.46c0,421.84,179.019,801.88,465.236,1068.28a84.982,84.982,0,0,1-113.733,125.29c-318.474-297.2-517.6-720.65-517.6-1190.6,0-899.24,729.02-1628.215,1628.31-1628.215S3628.08,1100.19,3628.08,1999.43C3628.08,2464.43,3433.12,2883.9,3120.5,3180.59ZM2002.5,3458a85.5,85.5,0,1,1-85.5,85.5A85.5,85.5,0,0,1,2002.5,3458Z"/>
</svg>
